<?xml version="1.0"?><svg width="1600" height="1600" xmlns="http://www.w3.org/2000/svg">
 <metadata id="metadata2156">image/svg+xml</metadata>
 <g>
  <path fill="black" id="path2206" d="m1286.66394,1571.316895c-3.315918,-3.995361 -10.310913,-4.622681 -33.389038,-2.993896c-25.165527,1.775879 -31.36853,1.038086 -44.951172,-5.346436c-8.66626,-4.073608 -17.036743,-9.530518 -18.60083,-12.126465c-5.209839,-8.646484 -15.190063,-9.521484 -28.888916,-2.532837c-19.07959,9.733765 -45.751221,6.321899 -61.981812,-7.928833c-15.6073,-13.703247 -19.265991,-21.157837 -21.758667,-44.332275l-2.077271,-19.312744l-19.22644,-0.151855c-30.000122,-0.236938 -51.106079,-7.630981 -63.352295,-22.194336c-11.472534,-13.643188 -11.109375,-8.806152 -5.669189,-75.533813c0.711304,-8.723999 -0.320435,-10.312744 -6.136353,-9.449097c-38.595825,5.730347 -66.496948,2.149414 -70.79834,-9.08667c-1.249451,-3.263794 -4.923523,-8.293945 -8.164551,-11.177734c-7.971313,-7.09314 -13.735107,-33.405029 -11.280945,-51.498291c1.481995,-10.926147 0.746277,-15.111328 -2.814819,-16.010132c-2.651794,-0.669312 -17.405945,-5.210815 -32.787048,-10.092041c-15.381226,-4.881226 -37.404236,-11.660767 -48.940063,-15.065674c-30.032532,-8.864258 -61.153931,-22.259521 -74.045044,-31.870483c-6.117188,-4.560547 -14.769043,-9.724243 -19.22644,-11.474731c-16.095093,-6.320801 -41.654724,-27.481934 -55.32489,-45.804077c-16.098572,-21.577026 -14.721741,-18.069702 -15.380737,-39.178711c-0.370483,-11.866577 -2.601685,-18.438721 -7.952148,-23.423462c-13.766052,-12.824951 -28.297241,-52.595337 -35.612793,-97.468323c-1.975159,-12.115356 -2.7547,-24.207947 -1.732239,-26.872314c1.022339,-2.664368 -5.565735,-20.280518 -14.64032,-39.147034c-10.32782,-21.471741 -17.130371,-40.840332 -18.186462,-51.781128c-0.959717,-9.941956 -4.422241,-20.493225 -8.030029,-24.469971c-11.039063,-12.167786 -31.295288,-59.059509 -34.825806,-80.619141c-7.233093,-44.170349 -1.222046,-70.746155 21.185669,-93.665344l10.572083,-10.813354l-0.71228,-56.018921l-0.71228,-56.018982l22.070862,-43.696411c12.138916,-24.033081 24.111023,-44.90271 26.604675,-46.376984c7.001526,-4.139526 10.230286,-32.8992 4.472412,-39.837097c-2.624268,-3.161957 -4.210754,-5.900543 -3.525574,-6.085693c0.68512,-0.18515 0.136536,-10.694214 -1.219116,-23.353485c-1.959839,-18.300598 -0.959106,-28.32843 4.884216,-48.939941c8.351624,-29.459381 23.727173,-61.552673 34.788391,-72.613983c4.121094,-4.121033 7.492859,-9.524902 7.492859,-12.008545c0,-2.483673 7.078796,-11.463104 15.730713,-19.954285c10.860229,-10.658524 15.730713,-18.327942 15.730713,-24.77095c0,-14.493591 8.880798,-32.347351 24.333069,-48.918365c7.765869,-8.32814 14.119812,-17.932739 14.119812,-21.343506c0,-22.601776 28.25885,-65.465149 66.24823,-100.485981c28.567383,-26.335098 46.611084,-36.026577 60.611267,-32.554878c11.149231,2.764725 26.951965,14.517551 26.951965,20.044868c0,2.6035 -6.047852,17.047306 -13.439636,32.097294c-36.709656,74.743057 -45.933044,103.473297 -48.489807,151.042923c-1.144165,21.285355 -0.251587,46.575546 2.159058,61.175034c2.260132,13.688721 5.795166,35.113525 7.855713,47.610687c2.060486,12.497162 8.083618,32.947113 13.384644,45.444275c5.301147,12.497162 11.694397,28.227875 14.207397,34.957153c2.512878,6.729248 7.234985,16.167664 10.49353,20.974274c3.258545,4.80661 9.480835,15.818146 13.827393,24.470001c4.346497,8.651917 10.057617,16.988708 12.691406,18.526245c2.633911,1.537476 4.788818,4.475464 4.788818,6.528778c0,3.225403 15.509888,25.531464 44.582458,64.117584c4.332581,5.750366 13.770996,19.380432 20.974304,30.289001c7.203247,10.908569 22.535278,27.976318 34.071045,37.928345c11.535889,9.952087 32.38208,29.196472 46.325073,42.765381c32.981079,32.096375 69.944214,57.795166 151.549072,105.365356c13.917969,8.113281 39.325928,26.132507 81.782959,58.000244c15.381104,11.544922 35.044556,25.66687 43.696411,31.382202c19.985352,13.202026 60.848755,58.177368 65.200562,71.761292c1.229492,3.837891 4.140747,8.557129 6.46936,10.487183c7.48291,6.201782 16.196655,34.019592 18.221313,58.170532c3.458984,41.258972 -13.105347,76.132874 -42.788574,90.085754c-8.493164,3.992188 -18.047729,11.235107 -21.232178,16.095215c-7.86145,11.998047 -4.916504,36.487427 6.009766,49.975098c8.955566,11.055054 41.443604,32.914185 55.58252,37.398071c33.257202,10.546753 53.625366,41.663208 53.122925,81.155762l-0.292969,23.027344l16.741699,16.136108c19.312378,18.614014 26.410278,30.94165 29.897095,51.924683c2.172852,13.07605 4.752319,16.446411 20.513672,26.803345c22.431396,14.739746 47.741943,38.53479 47.741943,44.883179c0,2.625977 -3.539429,8.081787 -7.865356,12.124023c-14.30127,13.363647 -53.421875,13.601807 -116.451172,0.709473c-26.833252,-5.488647 -50.44458,-2.165039 -62.232788,8.759766c-8.966064,8.309448 -16.907593,32.580566 -23.05835,70.471924c-3.616211,22.277466 -7.846436,30.329712 -20.768066,39.53064c-12.285156,8.747803 -42.558594,10.091309 -49.124268,2.180176zm31.418823,-10.735596c13.505981,-6.984253 20.307007,-20.943604 27.932739,-57.332397c7.279907,-34.738647 24.119995,-68.377075 35.798218,-71.50708c11.556396,-3.097412 36.04834,-2.629272 45.231201,0.864624c29.610352,11.266235 48.493286,15.296997 75.2146,16.05542c36.119507,1.025146 42.930054,-0.380859 42.930054,-8.862915c0,-9.29541 -22.791748,-30.002808 -40.442017,-36.74353c-14.210205,-5.427002 -15.339844,-6.839722 -17.581299,-21.987183c-2.902344,-19.613037 -20.886353,-48.921753 -36.875366,-60.095703c-16.225708,-11.339355 -16.342041,-11.645874 -15.005249,-39.562256c1.631592,-34.074585 -7.527832,-50.196045 -36.040039,-63.434448c-36.530273,-16.96106 -61.886475,-34.14624 -74.285889,-50.347412c-11.47168,-14.989014 -12.209229,-17.531494 -11.821289,-40.750977c0.584473,-34.984985 12.847534,-53.889038 34.957886,-53.889038c13.687134,0 22.46167,-9.889648 32.442383,-36.565552c6.397949,-17.099915 6.550903,-20.106995 2.012451,-39.561523c-8.136963,-34.880188 -30.457886,-74.160156 -55.153564,-97.058228c-11.915283,-11.048035 -27.956543,-25.952515 -35.647217,-33.121033c-7.69043,-7.168518 -19.488525,-15.822693 -26.217773,-19.231323c-6.729248,-3.408691 -20.886963,-12.743958 -31.461426,-20.745117c-10.574585,-8.001099 -39.676392,-26.818298 -64.670776,-41.815796c-102.485229,-61.494995 -173.422852,-115.520203 -209.742798,-159.737244c-118.410156,-144.156586 -161.746826,-232.979004 -174.886902,-358.446869c-1.434265,-13.695496 -0.361389,-31.453369 2.956726,-48.939987c2.864319,-15.094788 7.163086,-38.732361 9.552917,-52.527847c2.389832,-13.795532 9.495483,-35.818512 15.790222,-48.939972c6.294922,-13.121483 10.133667,-25.215431 8.53064,-26.875435c-4.612061,-4.776062 -32.900513,11.206383 -50.437622,28.496323c-8.796204,8.672218 -21.055664,26.150795 -27.243286,38.841209c-10.06897,20.651093 -11.208008,26.101227 -10.849243,51.913132c0.220581,15.861771 -0.971558,28.839645 -2.648926,28.839645c-3.8255,0 -13.716614,-18.780716 -13.716614,-26.044235c0,-10.425079 -6.752747,-5.298645 -10.132019,7.691742c-3.911621,15.037491 -8.71106,60.103134 -8.1922,76.923264c0.539856,17.499481 13.565796,41.348846 33.180969,60.751404c18.259338,18.061432 17.313354,28.463806 -1.276367,14.036133c-4.585327,-3.558655 -12.115173,-8.46106 -16.733154,-10.894287l-8.396362,-4.424042l2.330078,16.999207c1.281494,9.349609 6.216736,29.589447 10.967163,44.977509c9.496826,30.76239 24.521851,50.399261 48.094421,62.856445c7.194153,3.80188 13.080322,8.157745 13.080322,9.67981c0,4.22702 -18.072327,-1.07489 -28.50531,-8.362732c-11.64978,-8.137726 -13.443237,-8.109558 -13.443237,0.210999c0,11.493103 42.765503,77.204529 50.245239,77.204529c6.605347,0 31.623413,13.680786 29.28833,16.015869c-0.679565,0.679626 -7.053223,-0.549927 -14.163757,-2.732178c-15.093384,-4.632263 -19.364441,-2.182373 -12.54895,7.198303c2.672058,3.677856 13.405762,18.664307 23.8526,33.303223c10.446777,14.638916 20.223816,26.61615 21.726807,26.61615c1.50293,0 10.174011,4.719238 19.269043,10.487183c9.095093,5.767944 19.968628,10.487122 24.163452,10.487122c8.156494,0 18.026978,9.099731 14.114441,13.012268c-2.033508,2.033508 -15.030823,-0.817627 -37.966858,-8.328613c-11.050659,-3.618835 -6.376099,3.674133 20.471069,31.937317c21.632751,22.773804 29.384033,28.61792 42.310181,31.900024c27.125977,6.887512 34.035889,0.849915 25.150269,-21.975159c-4.818848,-12.37854 -4.753662,-56.838013 0.090332,-61.682129c6.308838,-6.308838 8.393799,0.370117 9.36615,30.002441c0.832092,25.358826 2.425476,31.566284 13.233093,51.552429c21.483765,39.729126 60.946289,79.689026 115.726318,117.18457c9.613281,6.579956 23.770874,16.396606 31.461426,21.814697c23.21167,16.352966 82.741211,46.794434 87.75,44.872375c15.296631,-5.869934 50.330688,19.64447 50.330688,36.654602c0,12.665039 -6.461792,13.178406 -17.533691,1.392761c-4.546021,-4.838928 -14.109253,-10.54895 -21.251831,-12.688843c-11.853516,-3.551392 -14.284302,-3.012634 -27.862793,6.17627c-40.081177,27.123901 -24.948975,82.996582 24.777466,91.485474c8.307129,1.418091 15.707031,4.388916 16.444702,6.601563c2.112671,6.338135 -10.137451,8.440796 -28.830322,4.948608c-14.210815,-2.654907 -19.372192,-2.074951 -30.059692,3.377319c-15.998657,8.161987 -26.424072,21.088013 -31.143311,38.613647c-3.01355,11.191895 -2.488647,15.662842 3.132568,26.681274c7.514526,14.729858 23.785522,32.393799 29.780518,32.329834c2.140991,-0.022827 12.015137,-2.204102 21.942627,-4.84729c12.992432,-3.459351 19.11377,-3.741455 21.848145,-1.007202c6.713013,6.713013 4.138794,12.255005 -11.932251,25.688721c-8.651855,7.231934 -15.730713,14.658569 -15.730713,16.503296c0,1.844849 -2.514404,6.132568 -5.587646,9.528442c-9.080444,10.033691 -3.478149,32.03125 11.508545,45.189819c14.204346,12.471558 27.493652,18.329468 35.615479,15.699219c3.110718,-1.007446 9.455566,-7.423706 14.099609,-14.258423c10.895996,-16.035767 19.13147,-20.59021 24.825562,-13.729126c3.435303,4.139282 3.152832,6.735962 -1.418091,13.0354c-31.927979,44.001831 -35.385132,68.6521 -11.657104,83.119751c17.592285,10.726318 27.548584,8.864014 47.233887,-8.834717c9.622925,-8.651855 18.264038,-15.730713 19.202393,-15.730713c0.938354,0 4.337158,4.015259 7.552734,8.922852c5.669067,8.652344 5.527588,9.286133 -4.669067,20.899536c-11.817261,13.459106 -16.268921,30.548096 -12.789429,49.095093c1.947144,10.380127 4.828247,13.626587 16.99353,19.14978c24.039551,10.914063 34.052246,8.181274 46.638184,-12.729004c3.68457,-6.121704 4.22583,-6.18396 6.425781,-0.738281c3.590942,8.888306 -22.535889,72.707153 -29.765503,72.707153c-4.990967,0 -4.117188,-10.78894 1.791138,-22.116943c3.183838,-6.103882 3.657349,-9.382813 1.23877,-8.576782c-2.15332,0.717896 -9.594971,12.226929 -16.536621,25.575684c-13.78125,26.501099 -17.80603,31.045288 -22.94458,25.906738c-2.189697,-2.189819 -1.259277,-9.139771 2.62793,-19.628052c3.310059,-8.930786 5.395142,-16.860962 4.633667,-17.622437c-4.455933,-4.455933 -17.031372,27.747559 -25.974854,66.517578l-10.337402,44.812256l9.164063,8.497437c10.781616,9.997192 11.699707,10.114136 25.080688,3.19458zm-15.845215,-21.248535c19.365967,-16.859985 26.217896,-20.505859 26.217896,-13.950317c0,6.358765 -19.537964,21.320435 -31.461426,24.092285c-7.634033,1.774658 -6.970825,0.491943 5.24353,-10.141968zm34.768921,-169.513184c-4.395142,-7.11145 4.316895,-11.359985 12.106323,-5.903931c3.995117,2.798218 6.22522,6.126465 4.955566,7.395996c-3.639893,3.639893 -14.47583,2.692261 -17.06189,-1.492065zm-78.465332,-63.93811c0,-6.878662 8.190308,-12.747314 13.344604,-9.56189c2.403931,1.485718 3.362671,5.328491 2.130493,8.539307c-2.691284,7.01355 -15.475098,7.858154 -15.475098,1.022583zm-66.530029,-88.114258c-4.067993,-10.699463 -1.896973,-15.437378 7.073608,-15.437378c8.118408,0 12.568481,12.541748 6.88147,19.394165c-6.126221,7.381714 -10.069214,6.263794 -13.955078,-3.956787zm-39.215332,-110.108032c-12.167725,-7.074341 -5.017944,-24.183594 10.106079,-24.183594c10.637451,0 13.022827,5.14624 7.570068,16.332275c-5.349243,10.973755 -9.292847,12.725342 -17.676147,7.851318zm27.38916,-118.239258c-4.005981,-4.426575 -5.148315,-9.414673 -3.583862,-15.648193c2.532104,-10.08905 7.511108,-11.474487 16.807495,-4.676941c4.920776,3.598267 5.435669,6.267944 2.631592,13.643433c-4.781616,12.576599 -8.936035,14.327332 -15.855225,6.681702zm-193.567749,-249.872375c-7.772339,-8.432007 -16.414429,-19.836792 -19.204468,-25.343933c-6.183228,-12.20459 -10.871826,-36.268677 -7.039551,-36.130859c1.529053,0.054993 9.859009,12.015015 18.510864,26.57782c8.651855,14.562866 20.056641,29.569214 25.343994,33.347351c5.287231,3.778259 9.613159,9.122009 9.613159,11.875061c0,9.813354 -13.316162,4.762878 -27.223999,-10.325439zm268.246704,805.459412c8.419434,-4.505981 10.458008,-10.368164 15.838013,-45.541382c3.292969,-21.529907 8.743042,-38.378784 19.788086,-61.175049c8.383789,-17.303833 15.819824,-32.797607 16.524292,-34.430542c4.21228,-9.762939 -18.708862,11.999634 -32.67749,31.025879c-9.138306,12.447021 -17.928589,22.631104 -19.533813,22.631104c-6.620361,0 7.809448,-33.441895 21.36792,-49.521362c8.02478,-9.516968 14.026611,-17.863281 13.337158,-18.547485c-2.190308,-2.173462 -14.834473,9.863159 -27.438477,26.120239c-16.345581,21.083374 -27.998413,33.740967 -27.998413,30.412476c0,-5.04187 14.694702,-31.994873 28.968628,-53.134521c12.539673,-18.571045 8.87085,-21.466064 -4.42981,-3.495728c-2.846069,3.845215 -10.201416,12.558472 -16.345093,19.362793c-6.143921,6.804321 -19.131104,30.655151 -28.860474,53.001953c-16.389893,37.644043 -17.467651,41.820801 -14.663452,56.830322c1.664551,8.909912 3.609253,16.648926 4.321533,17.197632c16.691772,12.858765 37.9729,16.664429 51.801392,9.263672zm-39.477417,-16.977173c-7.865723,-8.691528 -7.663574,-15.797119 0.332153,-11.668823c3.364624,1.737183 11.944946,4.209961 19.067383,5.495117c9.409668,1.697754 12.413208,3.734985 10.987061,7.451538c-2.821167,7.351929 -23.358276,6.488403 -30.386597,-1.277832zm4.731079,-24.976563c-4.106567,-2.596191 -4.307129,-4.203735 -0.94458,-7.566284c3.362549,-3.362671 6.141602,-3.268066 13.079712,0.445068c4.845337,2.59314 8.809814,6.022217 8.809814,7.619995c0,3.934326 -14.478394,3.5896 -20.944946,-0.498779zm-81.826294,28.16272c5.574219,-1.763672 14.067505,-4.061646 18.874146,-5.106567c5.695313,-1.238159 10.363403,-5.904785 13.401978,-13.397949c2.564453,-6.323853 6.020874,-14.644287 7.680908,-18.489502c1.659912,-3.845215 7.804565,-18.789429 13.654541,-33.209229c10.700562,-26.376099 27.381348,-53.012207 55.770874,-89.055908c8.442871,-10.718994 14.305664,-20.534058 13.028442,-21.811157c-1.277222,-1.277222 -9.757935,4.857056 -18.846191,13.631592c-20.636841,19.924683 -49.733398,37.360962 -49.733398,29.803223c0,-2.845459 3.539429,-7.569336 7.865356,-10.497314c4.32605,-2.927979 14.944092,-11.966064 23.596069,-20.084717c15.25415,-14.313965 10.714844,-13.053101 -6.991455,1.942261c-10.162476,8.606445 -37.658691,21.12561 -40.393188,18.391113c-1.027954,-1.027954 8.033325,-9.753662 20.135986,-19.390503c42.303223,-33.684082 45.481445,-45.653076 3.837769,-14.452637c-34.415039,25.784668 -79.125122,67.314087 -84.893799,78.854614c-2.734741,5.470947 -8.314819,13.880005 -12.400024,18.686523c-4.085327,4.806641 -9.50708,15.371338 -12.04834,23.477295c-6.266846,19.989502 1.662842,41.588867 20.078979,54.692139c14.753052,10.496948 13.849243,10.298218 27.381348,6.016724zm-16.956909,-18.047607c-6.295166,-3.666626 -16.604614,-20.858765 -16.604614,-27.690063c0,-2.115845 5.542236,0.380127 12.31604,5.546753c8.59436,6.555298 16.516724,9.393799 26.217773,9.393799c14.164673,0 17.632324,4.405029 9.707031,12.330444c-5.082764,5.082764 -23.216675,5.322998 -31.63623,0.419067zm0.387329,-27.569336c-6.737671,-5.612915 -7.15979,-6.896484 -2.299683,-6.991455c7.807251,-0.152588 23.76062,7.187378 23.76062,10.932007c0,5.413574 -13.125366,3.00354 -21.460938,-3.940552zm-28.660645,-60.417358c15.413452,-15.861816 30.916382,-33.316528 34.451172,-38.788208c3.534668,-5.47168 16.765259,-16.87793 29.401001,-25.347046c30.692261,-20.571533 61.182373,-48.585083 58.175415,-53.450439c-3.300537,-5.340454 -11.345459,-4.89502 -13.510986,0.748291c-2.177612,5.675049 -45.585571,26.822754 -55.056274,26.822754c-10.102783,0 -8.322144,-4.583374 4.526611,-11.650879c10.063477,-5.535767 41.113525,-30.434692 32.335327,-25.92981c-1.922607,0.986694 -11.361084,5.27771 -20.974365,9.535522c-9.613159,4.25769 -21.790405,9.822632 -27.060547,12.366333c-5.884155,2.839966 -10.384766,3.325928 -11.662109,1.259277c-3.121094,-5.050049 5.731567,-13.995117 19.496338,-19.700073c15.98999,-6.627075 45.444214,-25.677246 45.444214,-29.391968c0,-5.605835 -9.636475,-2.799805 -31.811401,9.262817c-38.687378,21.045044 -87.763916,43.744263 -94.68811,43.795776c-8.252319,0.061279 -39.376343,16.677368 -46.868164,25.02124c-11.201538,12.475342 -14.871948,21.150024 -18.419312,43.531738c-4.966675,31.337769 6.08667,52.795898 29.521851,57.311157c34.372314,6.622559 36.297974,5.889282 66.699341,-25.396484zm-71.613892,5.24353c-9.237183,-7.819336 -11.739136,-12.949585 -13.407837,-27.493042c-1.324707,-11.546631 -0.660645,-18.739502 1.875244,-20.306763c2.680298,-1.656494 3.926636,2.508911 3.926636,13.123047c0,10.026733 2.341187,18.440918 6.591431,23.689697c5.767334,7.122437 9.289795,8.044434 28.175171,7.373657c23.680664,-0.840942 25.762573,3.658325 4.433838,9.582031c-18.004883,5.000366 -18.817871,4.846802 -31.594482,-5.968628zm14.067505,-19.051636c-5.832764,-5.832764 -5.244629,-13.283691 1.048706,-13.283691c3.262573,0 5.24353,3.301392 5.24353,8.739258c0,9.965088 -0.506104,10.330566 -6.292236,4.544434zm306.923584,9.232178c0,-0.8479 -1.572998,-1.541626 -3.495728,-1.541626c-1.922607,0 -3.495728,1.666016 -3.495728,3.702026c0,2.036133 1.57312,2.729736 3.495728,1.541626c1.922729,-1.188354 3.495728,-2.854248 3.495728,-3.702026zm-368.395264,-68.759644c5.546509,-4.284912 12.168823,-9.796143 14.716309,-12.247192c15.6427,-15.051147 38.673706,-26.77124 79.265503,-40.33667c11.535767,-3.855225 29.135498,-10.724854 39.110229,-15.265869c9.974854,-4.541138 19.095581,-8.25647 20.268311,-8.25647c1.172729,0 10.912354,-5.616699 21.643677,-12.481323c21.832275,-13.965942 21.903809,-22.922729 0.110352,-13.816772c-13.413208,5.60437 -47.92334,7.364014 -47.92334,2.443481c0,-1.584106 11.798096,-6.580322 26.217896,-11.102539c14.4198,-4.522339 26.217773,-9.702026 26.217773,-11.510376c0,-1.828857 -3.490234,-2.165283 -7.865234,-0.757935c-13.193115,4.243774 -79.527588,6.44165 -79.527588,2.63501c0,-3.811401 19.490967,-7.747559 38.658691,-7.806885c6.842407,-0.021118 15.494263,-2.348022 19.22644,-5.170776c3.732056,-2.822876 9.345825,-5.182495 12.475098,-5.24353c6.293945,-0.123047 16.856201,-10.598389 10.686157,-10.598389c-2.038696,0 -13.636108,2.287109 -25.771973,5.08252c-12.135864,2.79541 -34.649658,5.945435 -50.030762,7c-56.507446,3.874023 -67.23938,6.371826 -102.856567,23.939453c-18.370422,9.060791 -34.896545,28.693726 -43.586243,51.780151c-7.56842,20.107422 -8.132202,24.527344 -4.482483,35.143677c8.169373,23.763184 15.368408,29.702881 41.212769,34.003418c1.182617,0.196899 6.688354,-3.147949 12.234985,-7.432983zm-19.628906,-15.66748c-10.17804,-3.690918 -20.974243,-16.313843 -20.974243,-24.523315l0,-8.309937l7.865356,8.148682c4.325867,4.481812 12.314819,10.091187 17.753052,12.465332c13.672607,5.96875 9.365967,17.299805 -4.644165,12.219238zm-0.168945,-28.411255c-10.870605,-8.80249 -6.025879,-16.478638 5.594727,-8.86438c8.27478,5.421631 11.79126,15.289795 5.448608,15.289795c-1.709595,0 -6.679077,-2.891357 -11.043335,-6.425415zm-45.474487,-46.601929c5.329102,-5.720215 6.116211,-8.725952 3.203857,-12.235107c-2.123413,-2.558594 -6.090454,-4.651855 -8.815613,-4.651855c-2.725159,0 -11.577698,-3.512573 -19.672302,-7.805786c-14.428101,-7.6521 -14.527588,-7.828735 -5.05603,-8.976074c8.913147,-1.079834 8.10083,-1.996826 -10.487183,-11.84021c-22.748535,-12.046387 -23.687439,-12.700806 -21.442566,-14.945679c0.890442,-0.890503 10.197815,0.66394 20.682922,3.454346c37.265015,9.916992 41.806763,5.47168 6.828918,-6.68396c-48.973083,-17.019165 -77.909607,-31.235474 -120.602112,-59.250977c-21.361877,-14.018066 -42.818237,-35.823853 -39.003418,-39.63855c1.159424,-1.159424 7.594666,2.076782 14.300537,7.19165c19.178406,14.628052 105.320801,56.373291 140.875366,68.269165c33.886719,11.338013 39.38678,12.477051 39.38678,8.156616c0,-3.144409 -32.131592,-18.309937 -38.948547,-18.382813c-7.06311,-0.075806 -35.45813,-10.407349 -40.809753,-14.848877c-2.560547,-2.125 -18.303711,-10.427734 -34.98468,-18.450317c-65.147949,-31.332153 -120.594116,-75.341553 -164.23761,-130.360352c-6.357178,-8.014038 -13.042725,-14.570984 -14.85675,-14.570984c-4.623291,0 -4.119324,33.663696 0.728882,48.691711c7.890747,24.458984 21.177246,51.08667 30.352295,60.829468c5.124268,5.441284 19.14856,16.925659 31.1651,25.520508c12.016479,8.594849 21.848206,16.989746 21.848206,18.655029c0,6.241577 -9.209045,5.821167 -23.519409,-1.073975c-8.129028,-3.916748 -15.957031,-5.944458 -17.39563,-4.505859c-2.765015,2.765015 30.566406,36.187622 51.642578,51.783569c14.774048,10.932617 36.796143,17.481079 60.93457,18.119385c13.00061,0.343872 17.478638,1.805542 17.478638,5.705811c0,2.883911 -3.630127,5.758057 -8.066895,6.386963c-10.328796,1.464111 -8.31604,7.351929 5.778625,16.903931c10.276917,6.9646 25.101868,12.119019 61.715393,21.457397c7.690552,1.961548 20.275085,5.997681 27.965698,8.969238c18.981934,7.334229 24.736084,7.00769 33.010132,-1.873413zm21.173462,-29.328247c0,-0.8479 -2.452515,-1.541626 -5.449951,-1.541626c-2.997437,0 -4.461792,1.598755 -3.25415,3.552734c1.995361,3.228516 8.704102,1.678467 8.704102,-2.011108zm-27.310303,-3.929688c-2.52356,-1.009644 -5.538574,-0.885498 -6.700134,0.276001c-1.16156,1.161621 0.903015,1.987793 4.588135,1.83606c4.072327,-0.167725 4.900635,-0.995972 2.112,-2.112061zm233.092896,-40.732666c16.176758,-1.283203 24.661377,-5.651733 24.881104,-12.810669c0.029419,-0.961426 -20.003174,-1.747803 -44.516846,-1.747803c-38.509644,0 -47.800049,-1.164917 -68.320068,-8.56604c-13.062134,-4.711304 -25.446167,-10.610229 -27.519775,-13.109009c-5.232544,-6.30481 1.65686,-5.974121 14.561279,0.699097c10.929443,5.651855 95.450684,8.85144 100.480103,3.803833c6.63916,-6.66333 -13.516846,-15.113403 -41.694458,-17.479858c-31.831787,-2.673218 -83.943726,-16.361694 -86.021729,-22.595703c-1.647705,-4.942993 -0.105957,-4.883545 25.491333,0.982788c11.535767,2.643677 35.525146,5.884766 53.309692,7.202148c28.11084,2.082397 32.335327,1.676025 32.335327,-3.110596c0,-3.02832 -0.732544,-5.505981 -1.627686,-5.505981c-0.895264,0 -18.850586,-2.402222 -39.900757,-5.338257c-39.619507,-5.525879 -72.165283,-14.211792 -122.173706,-32.606079c-29.646973,-10.904785 -37.106323,-11.301025 -63.972534,-3.39917c-10.332336,3.039063 -13.512085,6.228149 -17.125,17.175293c-3.802368,11.521484 -3.5802,15.686035 1.554077,29.130005c11.872681,31.088135 54.121582,55.391113 117.399902,67.532227c15.247314,2.925537 104.772217,2.765015 142.859741,-0.256226zm-186.420166,-26.286499c-25.150024,-4.882568 -29.441772,-6.956665 -44.570374,-21.538818c-12.301331,-11.856934 -16.740662,-18.778198 -16.740662,-26.100342l0,-9.9646l12.743408,12.74353c7.00885,7.008789 15.660767,13.669312 19.22644,14.800903c3.565613,1.131836 6.483032,3.385742 6.483032,5.008911c0,1.623169 11.404724,7.307129 25.343872,12.630981c41.674438,15.916992 40.696411,20.803101 -2.485718,12.419434zm-5.379639,-28.917847c0,-1.807495 -5.878906,-6.755127 -13.064331,-10.994629c-17.509644,-10.330933 -6.652588,-12.602051 12.80072,-2.677612c15.743835,8.03186 17.822449,12.366699 7.255066,15.130249c-3.845337,1.005493 -6.991455,0.349487 -6.991455,-1.458008zm-94.8302,-1.8396c-2.638672,-3.179321 -5.584167,-14.40625 -6.545471,-24.94873c-1.541077,-16.89978 -2.988953,-19.836182 -12.234985,-24.812744c-44.921448,-24.178711 -89.996765,-59.816589 -75.656677,-59.816589c1.648438,0 17.347778,9.438293 34.887512,20.974182c17.539734,11.535889 33.931335,20.974365 36.425842,20.974365c2.494507,0 8.034424,2.450684 12.310913,5.446045c9.050659,6.339355 17.295532,3.575439 11.209473,-3.75769c-2.136414,-2.574219 -12.044434,-8.943115 -22.017883,-14.152954c-48.395935,-25.281006 -149.222778,-108.983154 -149.222778,-123.878357c0,-1.917053 -2.040344,-3.485596 -4.534119,-3.485596c-9.506653,0 -60.497498,-63.674072 -56.356567,-70.37439c3.520142,-5.695679 7.268066,-3.038025 19.136353,13.569031c16.244934,22.731201 92.430969,98.328796 113.619751,112.742126c9.501465,6.463135 23.729553,16.971313 31.618164,23.35144c7.88855,6.380188 15.47052,11.600342 16.848755,11.600342c1.378174,0 9.081543,4.439453 17.11853,9.865479c16.152222,10.904602 60.01416,35.578796 63.246765,35.578796c1.129578,0 2.053772,-2.109619 2.053772,-4.68811c0,-2.578369 -8.258606,-9.169312 -18.352417,-14.646606c-22.502686,-12.210571 -43.99707,-25.875916 -53.309692,-33.892334c-3.845337,-3.310059 -15.169922,-11.958252 -25.165771,-19.218201c-48.28064,-35.065613 -93.266724,-78.393127 -140.738525,-135.549683c-18.760925,-22.588379 -49.84491,-75.192688 -66.392395,-112.357788c-7.165588,-16.093628 -13.833801,-30.066589 -14.818298,-31.051025c-0.984497,-0.984497 -6.079529,4.399841 -11.322327,11.96521c-8.622253,12.441895 -9.56781,16.870117 -9.903625,46.381531c-0.279724,24.578552 1.075928,35.213135 5.495789,43.113464c3.226868,5.767944 5.87677,12.332947 5.888611,14.58905c0.011841,2.255981 5.389893,11.134705 11.95105,19.730408c6.561279,8.595642 14.156189,19.878235 16.877686,25.072266c2.721436,5.194092 12.690552,13.625366 22.153625,18.736389c9.463074,5.110718 17.205627,10.837646 17.205627,12.726318c0,7.831238 -12.286499,4.82959 -27.375183,-6.687805l-16.104065,-12.292603l2.16626,11.255127c3.597778,18.692078 17.736023,42.35376 37.249207,62.339783c19.25647,19.723328 31.26178,26.176086 67.957581,36.527161c26.369629,7.438293 26.94342,14.245178 1.063599,12.617737l-18.226318,-1.146179l5.221802,10.097961c6.87915,13.302734 26.600403,32.391602 33.481812,32.408081c2.999573,0.00708 10.604309,3.15332 16.899414,6.991455c6.295044,3.838013 15.733459,6.999756 20.974304,7.026001c11.795227,0.059204 25.265442,3.515869 25.241577,6.477539c-0.009766,1.217773 -5.908752,4.69043 -13.108948,7.717041l-13.091064,5.502808l17.289063,11.101807c14.747131,9.469482 20.529053,11.101685 39.326782,11.101685c23.382568,0 26.940247,2.860962 14.172363,11.397095c-7.793823,5.210571 -7.706482,5.338135 9.613281,14.039917c9.613159,4.829712 20.42395,8.947632 24.024048,9.150757c5.69928,0.321655 5.925293,-0.37793 1.747803,-5.411011zm266.120239,-44.164063c0,-7.054443 -4.21875,-9.364746 -35.831055,-19.622314c-40.826782,-13.247437 -69.040405,-27.214722 -69.040405,-34.178955c0,-4.991699 12.792603,-3.459229 25.487671,3.053467c11.618042,5.960205 68.633423,23.786621 76.078125,23.786621c13.669678,0 5.026978,-7.519531 -19.700684,-17.140381c-13.505737,-5.254761 -33.911011,-14.750732 -45.345093,-21.102234c-11.434082,-6.351624 -25.083984,-13.81604 -30.333008,-16.58783c-11.134155,-5.879272 -14.434814,-10.2229 -11.444702,-15.060852c1.258789,-2.036865 11.82373,1.783813 25.550171,9.239807c12.872192,6.991943 39.134644,18.564758 58.361084,25.717407c19.22644,7.152466 37.709961,14.174316 41.074707,15.604004c4.302734,1.828369 6.117432,1.00293 6.117432,-2.782471c0,-2.960205 -3.539429,-6.449585 -7.865356,-7.754395c-30.238037,-9.119934 -120.017456,-54.609314 -156.461548,-79.275696c-17.362793,-11.751648 -38.843628,-29.144043 -47.735046,-38.649719c-18.497009,-19.77478 -29.996887,-24.565674 -57.107971,-23.79126c-14.719727,0.42041 -20.660461,2.248718 -25.343994,7.800049c-7.776184,9.21698 -8.004761,33.269226 -0.48407,50.928223c10.297241,24.178284 20.40509,42.941101 23.133179,42.941101c1.482117,0 2.694885,3.146118 2.694885,6.991455c0,3.845154 1.724854,6.991394 3.83313,6.991394c2.108276,0 10.981689,6.292236 19.718628,13.982849c8.736938,7.690491 17.311035,13.982849 19.053589,13.982849c1.742493,0 15.2854,6.672607 30.095337,14.828247c37.02478,20.388794 61.650757,30.124268 86.354248,34.138916c11.535889,1.874634 31.199219,5.593994 43.696411,8.265381c12.497192,2.671265 27.834595,5.044312 34.083252,5.27356c9.627808,0.353149 11.361084,-0.803223 11.361084,-7.579224zm-206.742126,-73.437012c-11.858459,-5.408936 -30.92865,-22.539185 -39.073792,-35.09906c-16.121094,-24.858643 -18.602539,-54.967102 -4.750183,-57.636047c4.790649,-0.923035 5.86615,1.758911 5.86615,14.629211c0,8.667725 1.636108,20.187866 3.635742,25.600159c3.38678,9.166809 43.846924,49.887451 49.673828,49.993713c1.442017,0.026367 2.621826,1.620911 2.621826,3.543579c0,4.56958 -6.513184,4.195801 -17.973572,-1.031555zm-3.757629,-36.547363c-2.934937,-3.364685 -7.368896,-10.050171 -9.853394,-14.85675c-4.294189,-8.307861 -4.186951,-8.488586 2.172607,-3.661621c13.375244,10.152039 22.420532,18.926575 22.420532,21.749451c0,5.103027 -9.236084,3.078369 -14.739746,-3.231079zm234.122559,23.263367c-1.136719,-9.953308 -4.021362,-12.128662 -36.025269,-27.165527c-48.798096,-22.927368 -72.526123,-36.360168 -74.365479,-42.099182c-1.009888,-3.151245 0.167725,-4.187744 3.2677,-2.876343c2.665649,1.127747 28.323975,12.389832 57.018433,25.026978c28.69458,12.637207 52.68396,22.976807 53.309692,22.976807c0.625732,0 1.137817,-3.14624 1.137817,-6.991455c0,-3.845276 -1.966309,-7.008484 -4.369629,-7.029297c-12.655884,-0.109436 -103.997559,-61.57782 -103.997559,-69.985107c0,-3.447571 24.790161,8.722656 54.183594,26.600525c31.512817,19.166992 56.942139,31.342041 59.700439,28.583618c3.873291,-3.873352 -0.963135,-7.646545 -27.381836,-21.361633c-40.966064,-21.267334 -74.091919,-45.161804 -75.435303,-54.413269c-1.419922,-9.779602 -2.580444,-10.267578 36.125244,15.188477c35.818726,23.55719 66.358154,39.476868 78.851074,41.103638c16.334473,2.127136 10.057251,-5.961121 -15.093994,-19.448547c-64.246704,-34.452393 -146.432617,-97.228577 -165.611572,-126.499207c-13.98584,-21.345093 -70.790527,-37.357117 -84.366577,-23.781067c-13.542603,13.542664 -9.637085,57.501465 8.243652,92.787354c11.303467,22.306458 38.735107,56.513611 50.383911,62.828796c7.665527,4.155762 29.723145,19.702393 45.483398,32.057861c20.663696,16.199341 93.381836,53.747375 117.067261,60.447632c22.22583,6.287476 23.240967,6.011353 21.875,-5.95105zm-191.848511,-120.06897c-26.830261,-19.690247 -32.777832,-30.827087 -32.777832,-61.375427c0,-20.974365 1.048645,-26.217896 5.24353,-26.217896c3.832947,0 5.837524,5.642334 7.45166,20.974304c2.63147,24.99585 8.963684,38.15564 27.599609,57.358704c13.043579,13.440491 17.275635,21.406799 11.266968,21.20813c-1.442017,-0.047668 -9.894775,-5.424194 -18.783936,-11.947815zm2.109985,-37.571533c-11.044922,-12.881592 -15.931885,-23.224182 -12.094116,-25.596008c5.134094,-3.173157 9.605103,0.775574 15.901001,14.043091c7.293945,15.370911 5.120972,21.965393 -3.806885,11.552917zm-106.549988,158.679016c0,-1.534302 -6.139404,-15.315063 -13.643066,-30.62384c-7.503723,-15.308716 -14.782776,-35.433838 -16.175598,-44.722412c-1.993164,-13.291016 -5.197205,-19.240173 -15.041809,-27.929321c-42.820251,-37.794312 -67.644043,-65.748047 -62.740784,-70.651306c0.992432,-0.992493 17.666504,13.980164 37.053589,33.272522c19.387085,19.29248 36.112549,35.077148 37.167725,35.077148c1.055176,0 1.918518,-2.506592 1.918518,-5.570007c0,-3.063477 -15.516479,-20.323547 -34.48114,-38.355774c-60.539001,-57.562561 -114.648315,-131.880188 -136.727173,-187.790955c-11.646545,-29.49292 -6.044495,-28.461975 8.206909,1.510376c6.722839,14.138916 20.963745,37.505066 31.646484,51.924927c10.682739,14.4198 24.496338,33.296692 30.696777,41.948547c24.767578,34.559448 107.324036,113.353638 112.911621,107.766052c0.901855,-0.901917 -12.920776,-16.473022 -30.717041,-34.602539c-40.595032,-41.355347 -79.416382,-86.358398 -79.416382,-92.062012c0,-1.006531 -8.897461,-16.436218 -19.772156,-34.288269c-34.797852,-57.124817 -60.136169,-114.556824 -79.020813,-179.10907c-2.785095,-9.520264 -6.55011,-17.804962 -8.366638,-18.410492c-6.340881,-2.113586 -19.141541,20.446136 -25.79718,45.464691c-8.916138,33.515259 -8.873169,61.704407 0.119568,78.482971c3.845276,7.174438 6.991455,14.792786 6.991455,16.929565c0,2.136902 5.82489,9.882935 12.944214,17.21344l12.944153,13.328125l-10.322388,-2.577148c-5.677307,-1.417419 -13.084961,-5.066711 -16.461304,-8.109558c-3.376465,-3.042847 -7.135193,-4.536194 -8.352783,-3.318604c-6.108887,6.108948 20.207764,72.992004 38.471619,97.77478c7.90979,10.732971 31.779236,28.285217 43.542725,32.018738c3.852112,1.222656 8.91156,4.521606 11.243225,7.331177c3.538574,4.263733 2.69519,5.108215 -5.10144,5.108215c-5.137512,0 -14.128174,-2.475647 -19.97937,-5.501465c-5.851074,-3.025635 -11.237671,-4.902039 -11.970093,-4.169495c-2.297241,2.29718 33.515869,49.410156 45.109802,59.342773c6.080383,5.209106 13.493469,9.535095 16.473572,9.61322c2.980103,0.078064 6.912781,1.483154 8.739258,3.122437c1.826538,1.63916 10.879089,5.013855 20.116882,7.499207c20.013367,5.384583 17.39386,10.720032 -5.702026,11.613892l-16.023132,0.620178l11.203857,11.681702c13.099487,13.658264 47.415894,32.023254 59.837891,32.023254c4.747986,0 9.604919,1.572998 10.793213,3.495667c1.199341,1.940674 -1.430237,3.519531 -5.911255,3.549194c-20.172607,0.133789 -17.057983,5.769409 18.891602,34.183777c33.320313,26.33606 44.698914,32.928223 44.698914,25.895691zm-53.396301,-81.144531c-14.252563,-12.545654 -21.268066,-24.432678 -14.419617,-24.432678c4.636414,0 33.491516,31.311096 32.259949,35.005676c-0.729858,2.189636 -8.722412,-2.547119 -17.840332,-10.572998zm95.344849,-63.235107c0,-4.034058 -17.71936,-22.655396 -29.781555,-31.297607c-9.747498,-6.983704 -30.943298,-34.638855 -28.455383,-37.126892c1.118225,-1.118164 10.129883,5.246643 20.02594,14.144043c34.882263,31.362122 29.853943,12.570618 -6.857117,-25.626038c-33.392944,-34.744202 -70.8302,-91.033936 -60.544983,-91.033936c1.419556,0 13.088867,13.764343 25.931946,30.587463c12.842896,16.82312 29.520264,36.598083 37.060547,43.944397c12.617188,12.29248 13.858704,12.787415 15.578613,6.210327c1.288574,-4.92749 -2.117065,-11.788696 -10.967773,-22.096191c-42.634155,-49.651428 -98.026123,-138.739563 -120.144531,-193.231018c-18.626404,-45.888397 -33.301453,-90.101501 -36.09967,-108.761383c-3.210205,-21.407257 3.311218,-17.898376 8.833923,4.753082c4.140137,16.980957 13.782776,37.519073 14.006165,29.832367c0.068115,-2.343872 -3.808777,-16.309082 -8.615356,-31.033691c-4.806641,-14.72467 -8.739319,-30.40155 -8.739319,-34.837555c0,-4.436096 -1.700928,-12.493896 -3.779907,-17.906311c-2.078979,-5.412445 -4.491211,-17.706146 -5.360535,-27.319366c-0.869385,-9.61322 -2.465637,-22.984314 -3.547241,-29.713562c-1.081665,-6.729248 -2.153015,-23.639771 -2.38092,-37.578949c-0.227966,-13.939117 -1.297363,-25.343903 -2.376648,-25.343903c-2.427063,0 -38.61145,47.7612 -44.375427,58.572968c-6.113403,11.467072 -15.085022,48.44812 -15.085022,62.180359c0,20.454437 12.854797,47.592682 33.459229,70.636993c20.38739,22.801575 18.607178,30.46109 -2.750061,11.832703c-6.315552,-5.508514 -15.177429,-11.169556 -19.693176,-12.580048c-6.899597,-2.155121 -7.902039,-1.532745 -6.278687,3.89801c5.539917,18.533173 16.237,62.604187 16.237,66.895142c0,9.705139 26.241577,47.217346 38.399902,54.892639c28.529053,18.009521 24.871521,26.326294 -4.669983,10.618835c-13.4151,-7.132874 -16.251404,-7.684326 -16.251404,-3.159851c0,8.112427 31.38623,64.236511 35.922913,64.236511c2.142395,0 7.914001,3.78772 12.825806,8.417053c4.911804,4.629333 18.369019,14.063782 29.904907,20.965332c19.396912,11.604492 20.185486,12.547302 10.487122,12.535706c-5.767944,-0.006958 -14.99292,-2.362488 -20.5,-5.234558c-16.736816,-8.728943 -16.92865,-6.213623 -1.348206,17.680847c16.358704,25.088257 30.318542,39.581909 44.444397,46.144043c11.774292,5.469788 49.065918,28.822632 49.065918,30.726196c0,0.496887 -5.505737,0.903381 -12.234985,0.903381c-6.729248,0 -12.234985,-1.247498 -12.234985,-2.772156c0,-1.524658 -2.359619,-3.677551 -5.24353,-4.784302c-2.884033,-1.106628 -5.243591,-0.285828 -5.243591,1.824036c0,5.249878 59.473816,65.888184 68.166443,69.50116c10.349976,4.301758 33.209229,3.960205 33.209229,-0.496277zm-14.842163,-117.674561c0.729004,-2.187073 -4.86145,-10.740601 -12.423157,-19.007935c-16.909973,-18.487915 -70.353943,-92.591919 -74.363708,-103.110596c-1.60968,-4.222778 -7.716919,-14.290466 -13.571655,-22.372742c-5.854736,-8.082275 -10.64502,-16.004944 -10.64502,-17.605957c0,-1.601013 -6.944214,-17.489014 -15.431641,-35.30658c-8.487305,-17.817627 -17.946411,-38.536224 -21.020142,-46.041321c-8.393555,-20.49469 -10.751953,-12.401428 -2.632751,9.034821c22.24884,58.741058 58.793823,122.953949 109.786072,192.904388c8.218872,11.274597 17.330688,24.645691 20.248413,29.713562c9.635376,16.736084 11.031982,18.334106 14.897217,17.045715c2.106934,-0.702332 4.427368,-3.066284 5.156372,-5.253357zm1002.782959,830.840942c-11.77417,-9.261475 -20.370239,-25.794312 -21.61731,-41.57605c-0.534424,-6.764404 -3.707153,-23.310303 -7.050293,-36.768677c-4.539063,-18.273071 -8.585815,-26.525513 -15.979736,-32.58606c-13.940063,-11.426758 -40.274414,-13.517578 -71.112915,-5.64624c-14.899048,3.802856 -38.142822,6.345703 -59.427124,6.501343c-29.697754,0.217163 -36.386963,-0.795166 -44.460449,-6.728882c-5.226807,-3.841431 -9.552856,-9.78186 -9.613281,-13.200928c-0.119263,-6.749146 31.760864,-38.122314 49.852051,-49.059448c14.197266,-8.58313 15.432861,-10.626465 20.191406,-33.394287c3.295654,-15.769043 7.020142,-21.806885 23.388306,-37.915527l19.468384,-19.15979l0.881714,-25.007202c0.985474,-27.947632 4.513428,-39.547363 16.981812,-55.833618c7.8927,-10.309814 16.185181,-15.481812 52.299927,-32.619507c7.497192,-3.557617 21.411133,-13.547363 30.919922,-22.199219c14.859009,-13.519897 17.508179,-17.941528 18.848755,-31.461426c2.01709,-20.337769 -4.063721,-31.5354 -21.546387,-39.67627c-30.030884,-13.984253 -43.838867,-36.177979 -46.34082,-74.484314c-1.779053,-27.239502 8.220581,-69.59729 18.430786,-78.071045c2.90564,-2.411377 5.308105,-6.15802 5.338745,-8.325867c0.119751,-8.452515 53.928101,-66.891602 67.537231,-73.349548c6.286255,-2.983093 14.389038,-8.694031 18.00647,-12.691162c3.61731,-3.99707 12.186035,-10.649597 19.041748,-14.783386c6.855835,-4.133728 19.543945,-13.18335 28.195801,-20.110168c14.352661,-11.490906 37.954346,-28.139526 52.075195,-36.733826c29.131714,-17.72998 50.09375,-30.216125 63.283447,-37.69519c21.699951,-12.304443 62.507324,-41.870544 75.157959,-54.453979c5.767578,-5.737305 27.677246,-25.634399 48.687012,-44.215759c22.64209,-20.024353 43.622314,-42.128235 51.512451,-54.271301c7.322021,-11.267883 23.952637,-34.632629 36.958008,-51.921631c13.004883,-17.289124 26.79126,-36.603699 30.636719,-42.921326c3.845215,-6.317657 11.34668,-18.622803 16.669922,-27.344788c13.787109,-22.590179 27.026367,-48.235382 27.026367,-52.35144c0,-1.93396 3.799805,-11.817963 8.443604,-21.964386c15.52832,-33.926758 24.167969,-88.774078 23.280762,-147.78949c-0.658936,-43.802597 -8.322021,-77.947083 -24.69873,-110.048019c-3.864258,-7.574219 -7.025635,-16.343987 -7.025635,-19.488419c0,-3.144424 -2.950684,-9.892662 -6.557129,-14.996056c-3.606689,-5.103386 -10.17041,-17.718048 -14.585938,-28.032547c-9.27832,-21.672581 -7.778564,-26.283535 11.862305,-36.476265c11.367676,-5.899406 14.329346,-6.162601 24.224854,-2.152977c21.138428,8.565102 66.143066,49.035538 87.135498,78.357162c6.882568,9.613213 15.83252,28.26403 19.888916,41.446297c4.626465,15.03447 10.518066,26.439774 15.807129,30.60025c10.35376,8.144241 26.516113,39.725128 26.542725,51.863739c0.012207,5.634445 5.491699,14.838226 14.856689,24.954819c8.1604,8.815338 17.983154,21.287506 21.828613,27.715881c3.845215,6.428375 11.325684,18.87915 16.623535,27.668457c11.4375,18.976532 10.355469,16.346558 20.239258,49.189789c7.469971,24.823761 7.631104,27.611969 3.024414,52.43573c-6.190674,33.362305 -5.807861,59.327332 0.94873,64.356354c2.815186,2.095551 14.981689,23.953094 27.035889,48.572388l21.91626,44.762329l-0.359131,55.904236l-0.358887,55.904358l10.11377,9.448364c21.469238,20.056702 28.681641,49.61377 21.779053,89.252319c-4.488281,25.775269 -20.596191,64.299927 -34.512939,82.546082c-5.736328,7.52063 -9.468506,17.188782 -9.900146,25.647644c-0.64917,12.711853 -11.088867,40.749451 -25.667969,68.937378c-3.860596,7.463928 -7.269531,24.428101 -8.742432,43.503418c-1.327637,17.197754 -4.419678,36.074524 -6.871094,41.948547c-2.45166,5.874023 -5.542725,16.185791 -6.869141,22.915161c-1.32666,6.729126 -7.019043,18.527222 -12.649902,26.217773c-18.087402,24.702393 -21.897217,33.150757 -17.39624,38.574463c3.091797,3.725098 2.73584,7.469604 -1.520508,16.001709c-12.837402,25.732666 -33.002441,45.800415 -64.464111,64.153076c-3.177979,1.853882 -12.070557,7.506714 -19.76123,12.561768c-16.084473,10.57251 -52.909424,27.764038 -59.471436,27.764038c-2.443848,0 -23.468506,6.292236 -46.721436,13.982788c-23.253174,7.690552 -45.604736,13.98291 -49.670166,13.98291c-6.715088,0 -7.243408,1.519897 -5.770996,16.604614c2.156738,22.102051 -6.476318,53.589722 -15.327148,55.904175c-3.67749,0.96167 -6.258301,4.258789 -5.746338,7.34021c1.973633,11.869019 -45.530762,18.175537 -68.462646,9.088867c-9.855225,-3.905151 -12.447266,4.199341 -7.063721,22.086792c12.37915,41.133789 0.374268,71.388306 -32.198975,81.144897c-9.454346,2.832031 -24.715332,4.649902 -33.912354,4.039673c-19.914063,-1.321167 -27.813965,3.727295 -24.775391,15.833008c2.863037,11.40686 -7.05957,36.299805 -19.046875,47.784546c-6.609863,6.33252 -16.324707,10.543091 -30.276123,13.12207c-18.399902,3.401489 -21.86792,3.053589 -33.232666,-3.333984c-13.297852,-7.473633 -26.169067,-6.78894 -29.373901,1.562622c-1.016235,2.647949 -9.102173,8.224365 -17.968628,12.392212c-13.989624,6.575684 -19.9823,7.30542 -45.315674,5.5177c-23.078003,-1.628784 -30.073242,-1.001465 -33.389038,2.993896c-6.707886,8.082764 -38.828247,6.643677 -50.12915,-2.24585zm43.142578,-10.565552l8.58728,-7.145996l-8.245605,-40.803833c-7.252563,-35.889282 -22.376465,-77.461182 -26.63208,-73.205566c-0.826538,0.826416 1.042603,8.972534 4.153564,18.102539c5.481934,16.089111 3.569092,25.527588 -4.108154,20.27124c-1.989502,-1.361938 -8.122314,-11.501099 -13.628784,-22.531372c-5.506104,-11.030396 -13.126099,-22.828491 -16.932495,-26.217896c-6.845825,-6.095825 -6.859009,-6.041992 -1.223755,4.976929c5.549194,10.850952 4.565918,23.913086 -1.517578,20.15332c-4.996094,-3.087769 -21.625366,-42.667969 -26.560913,-63.218506c-2.740601,-11.411499 4.815674,-13.152466 10.013672,-2.307129c6.974243,14.551392 19.817139,17.518433 39.991211,9.239136c14.909912,-6.118896 17.137329,-8.449829 19.746582,-20.665161c3.705444,-17.345093 -2.038086,-38.475708 -13.866821,-51.019287c-5.988525,-6.35022 -8.054077,-11.496582 -6.535522,-16.281616c4.021362,-12.670166 11.865112,-11.442993 30.041748,4.700439c19.398071,17.228516 29.599243,19.210449 46.829712,9.098877c20.944092,-12.291016 20.374023,-36.783203 -1.623535,-69.724609c-15.320923,-22.943604 -16.42981,-26.891235 -8.416504,-29.966187c3.518066,-1.350098 9.70752,2.544434 17.461792,10.987061c6.606812,7.193115 12.019531,14.089844 12.028687,15.326172c0.044067,5.886719 12.594971,5.882935 25.691772,-0.007935c28.890259,-12.994995 38.032959,-33.404541 26.404907,-58.944336c-3.695068,-8.115845 -10.23938,-16.62146 -14.542236,-18.901245c-9.451416,-5.007446 -20.078979,-16.660645 -20.005615,-21.935181c0.149292,-10.692261 5.233154,-11.869751 26.880249,-6.226074l21.690186,5.654785l9.230225,-8.623169c5.076416,-4.742798 13.147705,-15.283691 17.936279,-23.424194c8.557373,-14.548828 8.609375,-15.091187 3.04834,-31.833252c-9.768555,-29.411133 -31.957397,-43.831543 -59.52002,-38.682251c-17.818359,3.328735 -29.805786,1.651855 -29.805786,-4.169556c0,-3.900146 3.584717,-5.239624 22.473511,-8.397339c8.744873,-1.461792 17.837891,-6.399658 25.030762,-13.592346c24.125732,-24.125732 21.87793,-58.175964 -5.055908,-76.59314c-17.67688,-12.087097 -33.022217,-10.443604 -49.080811,5.256836c-18.438232,18.026367 -27.081665,6.404907 -12.491577,-16.794983c5.986328,-9.519409 27.153564,-19.473267 43.191895,-20.311157c7.303223,-0.381592 21.937744,-6.119507 34.672607,-13.594971c12.119751,-7.113953 23.131226,-12.965942 24.470093,-13.00415c1.338867,-0.038269 11.872803,-6.343323 23.408691,-14.011353c11.535889,-7.667969 27.266602,-18.121399 34.957275,-23.229736c17.685059,-11.747253 62.148682,-47.119751 65.307129,-51.954529c1.311768,-2.007446 11.136475,-13.025574 21.834229,-24.484863c10.697021,-11.459229 25.120605,-31.592285 32.051758,-44.73999c11.072021,-21.002625 12.622314,-27.021851 12.769287,-49.5755c0.183838,-28.180359 3.182861,-37.472595 9.919678,-30.735535c4.0979,4.0979 2.693359,48.148743 -2.347168,73.62854c-1.817139,9.184998 -1.12793,11.361084 3.598633,11.361084c3.21582,0 4.90918,1.517151 3.763184,3.371399c-1.145752,1.854309 3.429688,1.067749 10.168701,-1.747864c6.73877,-2.815613 14.750488,-5.119263 17.803955,-5.119263c5.166748,0 57.707275,-52.236816 60.685303,-60.334229c0.790039,-2.147949 -1.366943,-2.774475 -5.243408,-1.523132c-24.256836,7.829773 -36.388916,10.497314 -38.435303,8.45105c-3.94873,-3.948853 5.992676,-13.012268 14.273193,-13.012268c4.281738,0 14.707275,-4.690613 23.167725,-10.423523c8.460693,-5.73291 16.956055,-10.467651 18.878662,-10.521606c1.922607,-0.053833 14.141602,-15.31012 27.153076,-33.902649c24.343262,-34.78479 25.788086,-43.612488 5.480469,-33.48175c-5.691162,2.838989 -11.118652,4.390625 -12.061035,3.447998c-2.700195,-2.7005 21.458252,-16.494141 28.888672,-16.494141c4.711426,0 12.197998,-9.308533 25.340332,-31.507996c10.259277,-17.329437 20.04248,-32.366455 21.739746,-33.415649c3.418457,-2.112488 4.310547,-18.973541 1.004395,-18.973541c-1.14502,0 -6.257568,2.950562 -11.361084,6.556763c-9.098145,6.429199 -32.000977,13.299133 -32.000977,9.59906c0,-1.033051 7.448242,-6.243164 16.551514,-11.578064c14.749756,-8.64386 33.23584,-26.003418 40.088379,-37.645599c3.822266,-6.493286 20.265869,-70.217926 20.265869,-78.536407c0,-8.13443 1.753418,-8.68927 -29.296387,9.270447c-12.237305,7.078369 -11.476074,-4.53302 0.984863,-15.018097c15.4375,-12.989777 31.4646,-38.249695 33.763184,-53.213593c2.691406,-17.521088 -3.780518,-81.966324 -9.254639,-92.154739l-4.404297,-8.197601l-2.406494,8.943436c-8.213867,30.528793 -18.813965,32.086227 -16.455078,2.417633c1.8125,-22.799255 -5.419678,-52.660461 -17.446045,-72.031982c-18.289795,-29.46022 -74.339355,-69.267258 -74.339355,-52.796608c0,2.001411 4.69043,12.651627 10.423584,23.667145c5.845703,11.232368 12.856934,33.046364 15.964355,49.670677c3.047607,16.303436 7.632568,39.867523 10.188721,52.364685c7.621826,37.259079 -0.296143,101.502335 -19.603027,159.054977c-25.82666,76.988281 -46.480225,112.67923 -125.34082,216.595245c-8.6521,11.400818 -33.821045,38.92041 -55.931396,61.154663c-43.828369,44.073853 -72.843262,65.315125 -174.508179,127.75293c-59.153198,36.329041 -76.126953,47.4823 -85.436035,56.138916c-2.190063,2.036743 -12.240967,8.185791 -22.334839,13.66449c-10.093872,5.478821 -18.352417,11.706604 -18.352417,13.839722c0,2.133057 -3.788452,6.208984 -8.418457,9.057617c-13.29834,8.181763 -44.864624,39.343201 -55.091064,54.384949c-11.741455,17.27002 -27.537964,54.602905 -31.265503,73.891846c-3.499634,18.109436 2.908447,41.667236 16.004639,58.837158c7.300049,9.570801 11.662476,12.077393 21.019287,12.077393c20.605835,0 33.107544,19.70813 34.117188,53.783813c0.577759,19.490845 -0.614868,24.174927 -9.374146,36.814331c-12.756836,18.408081 -34.96521,34.570435 -68.953369,50.18103c-37.188354,17.080688 -45.389893,29.490356 -44.512085,67.350464c0.655762,28.282104 -0.892578,31.663574 -19.610352,42.827148c-8.263306,4.928345 -29.015015,41.246826 -31.379272,54.918213c-2.973022,17.191284 -6.47229,21.658813 -19.144287,24.442017c-21.651733,4.755615 -47.98938,39.365601 -34.032227,44.721436c9.094116,3.489746 71.191895,-0.127197 79.575317,-4.634888c17.001587,-9.141602 57.033813,-15.681274 75.16748,-12.279419c8.882813,1.666504 13.270386,4.821411 15.740479,11.318237c1.883545,4.954346 6.246338,13.128418 9.694824,18.164429c7.289307,10.645386 13.079346,29.898438 16.4198,54.601074c2.682983,19.839111 8.674194,31.46582 22.057373,42.805054c11.365234,9.629883 17.244507,9.734497 28.336426,0.50415zm-26.979126,-22.055542c-7.174927,-6.575439 -11.864868,-13.136108 -10.421753,-14.579224c1.442993,-1.443115 6.156616,0.594238 10.47522,4.527222c4.318237,3.933105 11.390747,8.975952 15.716797,11.206543c4.325928,2.230591 7.865356,5.573242 7.865356,7.428223c0,6.970825 -11.037109,2.963013 -23.63562,-8.582764zm-33.438843,-165.138306c-1.269409,-1.269531 0.960449,-4.597778 4.955566,-7.395996c7.789673,-5.456055 16.501343,-1.20752 12.106567,5.903931c-2.586182,4.184326 -13.422119,5.131958 -17.062134,1.492065zm80.055908,-66.442871c-3.219238,-8.389038 3.397827,-13.822998 10.079468,-8.277588c2.965942,2.46106 5.391968,6.641724 5.391968,9.290283c0,6.830078 -12.782837,5.99353 -15.471436,-1.012695zm66.218628,-84.994873c-5.129272,-5.667847 -5.467651,-7.890137 -1.86145,-12.234985c4.886597,-5.888306 16.015503,-7.096436 19.118652,-2.075317c2.243652,3.630127 -4.883423,21.236206 -8.59668,21.236206c-1.31604,0 -5.213135,-3.116577 -8.660522,-6.925903zm40.926392,-112.730103c-2.045288,-2.4646 -4.802002,-8.798096 -6.126587,-14.074585c-2.151611,-8.572754 -1.463989,-9.593628 6.460815,-9.593628c9.554565,0 20.93689,8.989624 18.945679,14.963379c-0.671875,2.015503 -4.447998,5.806885 -8.391357,8.425171c-5.814941,3.86084 -7.872437,3.913574 -10.88855,0.279663zm-24.472778,-115.362061c-2.043579,-2.462585 -4.762207,-8.64624 -6.040894,-13.741394c-1.86853,-7.444397 -0.899902,-9.716492 4.93103,-11.5672c9.391968,-2.980896 13.089722,-0.479004 15.139282,10.243713c2.099854,10.984131 -8.219604,22.065308 -14.029419,15.06488zm177.499268,-241.948608c0,-2.774902 3.132813,-7.239563 6.96167,-9.921448c8.655762,-6.062744 25.040283,-28.459717 34.765625,-47.522034c8.929688,-17.503784 15.735596,-19.176941 12.43042,-3.055786c-3.546631,17.296204 -14.914795,37.88855 -28.947998,52.435669c-12.828125,13.297729 -25.209717,17.258179 -25.209717,8.063599zm-197.517212,790.707031c5.264282,-4.539917 10.502686,-14.037109 12.389648,-22.462646c2.946533,-13.15686 1.950562,-17.468628 -10.091797,-43.696411c-7.348755,-16.004517 -14.344727,-33.03186 -15.546875,-37.838379c-1.202271,-4.806641 -10.115967,-18.109741 -19.807739,-29.562378c-9.691895,-11.452515 -17.621826,-21.692383 -17.621826,-22.755127c0,-1.062744 -3.2948,-3.989746 -7.321533,-6.504639c-5.978394,-3.733398 -5.351196,-1.708496 3.417358,11.036621c14.445435,20.995361 32.896118,54.916016 30.936768,56.875488c-0.870361,0.869995 -6.915161,-4.751343 -13.43335,-12.491821c-6.518433,-7.740601 -17.146362,-20.366699 -23.618042,-28.058105c-6.47168,-7.691406 -13.289307,-13.984375 -15.150391,-13.984375c-1.861206,0 1.860718,6.39978 8.270874,14.221924c14.930176,18.218506 23.509277,34.326416 23.721924,44.537598c0.216309,10.402222 -4.812256,7.210693 -15.623901,-9.91626c-10.008057,-15.854126 -31.775513,-38.356079 -37.10376,-38.356079c-2.047485,0 -0.317749,5.112427 3.843262,11.361084c4.161255,6.248535 9.9198,16.866699 12.796753,23.596069c2.876953,6.729126 7.315674,16.954102 9.86377,22.722168c2.548462,5.767822 6.463257,21.498535 8.700195,34.957031c8.692749,52.302979 9.174438,52.991943 37.597046,53.778076c10.579834,0.292603 17.200684,-1.784302 23.781616,-7.459839zm-35.091675,-9.845703c-3.030396,-4.90332 -2.83667,-5.020386 18.496216,-11.180664c14.038086,-4.053833 18.352539,-4.284302 18.352539,-0.980835c0,12.035645 -30.67041,22.158081 -36.848755,12.161499zm5.387329,-27.610352c0,-5.660767 14.274048,-11.717285 18.248535,-7.742676c1.933228,1.933228 2.458008,5.225098 1.16626,7.315308c-2.904907,4.699951 -19.414795,5.063599 -19.414795,0.427368zm130.458618,21.725342c8.970947,-6.774902 14.389648,-14.773926 18.350098,-27.091797c5.387939,-16.756348 5.314941,-18.128662 -1.770264,-33.209229c-4.064941,-8.651978 -10.88916,-21.176758 -15.165527,-27.833008c-7.831299,-12.190063 -68.716553,-73.522827 -72.999268,-73.535767c-1.265747,-0.003906 -10.991211,-7.085815 -21.612549,-15.737671c-10.620972,-8.651855 -21.284424,-15.730713 -23.696289,-15.730713c-6.093872,0 12.459351,19.033447 34.772827,35.673462c10.24353,7.63855 17.731689,14.78125 16.640259,15.872314c-2.441772,2.441772 -29.514648,-9.019043 -37.886108,-16.038452c-3.364746,-2.821167 -6.117554,-3.526611 -6.117554,-1.567505c0,1.959229 6.292236,7.922729 13.98291,13.252319c7.690552,5.32959 13.982788,11.985229 13.982788,14.790405c0,7.367188 -29.105591,-9.964111 -49.059814,-29.213379c-26.543701,-25.605591 -29.003296,-18.908691 -4.22229,11.495483c33.986816,41.698364 38.597656,49.839478 65.54895,115.72937c11.135498,27.223755 14.705078,32.718262 22.341675,34.388916c4.998291,1.09375 13.020752,3.299927 17.827393,4.902588c13.560791,4.521606 15.496338,4.112549 29.082764,-6.147339zm-44.271729,-14.258179c-8.491943,-9.383179 -7.413818,-10.503174 10.107422,-10.503174c11.980225,0 19.018799,-2.384277 28.590576,-9.685425c9.565186,-7.295288 12.112793,-8.159302 10.325439,-3.501099c-1.305176,3.401367 -2.373047,7.399048 -2.373047,8.883667c0,1.484741 -3.857666,6.861694 -8.572266,11.949097c-10.380615,11.200806 -29.246338,12.616333 -38.078125,2.856934zm11.693115,-20.313599c0,-4.625732 12.560791,-11.523926 20.974365,-11.518921l8.739258,0.005127l-8.25293,6.875122c-7.81665,6.511963 -21.460693,9.46106 -21.460693,4.638672zm126.676025,-41.701416c7.514648,-3.070923 17.025635,-18.603149 19.057617,-31.121948c5.585449,-34.420166 -12.279297,-69.797852 -42.454102,-84.072998c-10.070313,-4.763916 -20.288574,-8.661499 -22.70752,-8.661499c-2.419434,0 -12.228516,-3.932617 -21.798096,-8.739258c-9.570068,-4.806641 -20.066406,-8.739258 -23.325928,-8.739258c-3.259766,0 -9.625488,-2.590698 -14.14624,-5.757202c-15.238525,-10.673462 -57.185669,-32.695679 -62.277832,-32.695679c-13.174683,0 4.757324,13.747437 51.056396,39.141968c6.986816,3.832031 10.115479,7.759644 8.836182,11.09314c-1.640625,4.276001 -5.914795,3.395264 -24.934326,-5.138306c-12.624878,-5.664307 -23.668213,-9.584473 -24.541138,-8.711548c-0.873169,0.872925 6.790527,7.59436 17.030151,14.936279c14.987549,10.746216 17.22998,13.549805 11.501221,14.378174c-8.707031,1.259155 -50.335205,-16.985107 -56.953491,-24.96106c-5.824219,-7.018555 -14.428955,-7.593994 -14.428955,-0.964844c0,5.334351 34.934814,36.857422 59.427124,53.623535c8.651855,5.922485 18.303955,13.680054 21.448242,17.238647c3.14502,3.558716 20.448486,21.961182 38.452881,40.894287l32.735352,34.423706l21.804443,-2.181274c11.991943,-1.199707 23.790039,-2.99292 26.218018,-3.984863zm-36.405518,-10.977051c-5.14624,-0.787354 -11.261475,-3.725708 -13.588135,-6.529541c-3.641846,-4.387939 -1.383057,-4.927002 16.215576,-3.870117c17.797119,1.068726 21.5271,0.147339 28.782959,-7.108398c6.813477,-6.813477 8.110107,-11.177002 7.099121,-23.888062c-1.312256,-16.503662 2.518311,-21.153198 5.999512,-7.281982c3.726563,14.8479 -4.69165,36.821655 -16.976807,44.312256c-6.150635,3.750366 -12.756592,6.588989 -14.679199,6.308105c-1.922607,-0.280762 -7.706299,-1.154785 -12.853027,-1.942261zm10.164551,-28.706177c-2.015381,-7.706421 -0.093506,-10.763184 6.766846,-10.763184c6.088135,0 5.990967,8.527344 -0.155518,13.628418c-3.778076,3.135376 -5.203613,2.517456 -6.611328,-2.865234zm-292.699341,13.706787c0,-1.922729 -1.57312,-3.495728 -3.495728,-3.495728c-1.922729,0 -3.495728,1.572998 -3.495728,3.495728c0,1.922607 1.572998,3.495728 3.495728,3.495728c1.922607,0 3.495728,-1.57312 3.495728,-3.495728zm106.599976,-66.439941c-3.490845,-3.857056 -7.15918,-6.200562 -8.151978,-5.20752c-0.993164,0.99292 1.225952,4.098755 4.930786,6.901733c9.452759,7.151367 10.654541,6.519287 3.221191,-1.694214zm286.049316,-1.532349c7.69873,-1.718872 11.616211,-6.162354 17.813721,-20.205444c7.327881,-16.60437 7.578857,-19.217285 3.233398,-33.657227c-7.457764,-24.780151 -20.883301,-44.591309 -38.086182,-56.201294c-8.746338,-5.90271 -16.696045,-10.7323 -17.666748,-10.7323c-0.970215,0 -8.363281,-2.957153 -16.428955,-6.571411c-15.108643,-6.77002 -32.72168,-9.547852 -81.071045,-12.785767c-15.374023,-1.029541 -36.837402,-4.174194 -47.696533,-6.988159c-25.938721,-6.721313 -29.625732,-6.677002 -23.846191,0.286621c2.466064,2.971436 6.591553,4.593872 9.167236,3.605347c2.575928,-0.988403 4.683594,-0.464355 4.683594,1.164673c0,4.758179 17.609375,10.093506 39.824951,12.065918c11.328857,1.005981 22.340088,3.647461 24.469971,5.869995c2.923096,3.05127 -5.11792,3.592285 -32.833496,2.208984c-20.187988,-1.007568 -41.264893,-2.963623 -46.837891,-4.34668c-6.839111,-1.697266 -9.383301,-1.301758 -7.826416,1.216919c1.268066,2.052246 14.08667,7.22876 28.485107,11.503174c14.398438,4.274414 26.179199,9.115601 26.179199,10.758179c0,5.136475 -34.132324,3.259888 -49.014404,-2.694702c-17.389771,-6.957886 -22.487183,-3.347412 -9.697021,6.868408c16.541016,13.21167 61.421387,34.54834 84.929199,40.376343c9.613281,2.383301 22.680664,7.377563 29.039551,11.098389c6.358398,3.720825 14.302734,6.765259 17.653809,6.765259c3.351074,0 15.452393,7.520142 26.891846,16.711792c30.439453,24.457886 37.464111,28.875244 43.414063,27.301636c2.942871,-0.77832 9.791504,-2.406738 15.219238,-3.618652zm-23.268799,-18.255371c-4.459717,-4.459839 -2.264648,-8.011108 8.342529,-13.496338c5.870361,-3.035522 13.851074,-8.697388 17.735596,-12.581787l7.062744,-7.0625l-1.131348,9.757324c-0.749512,6.468384 -5.134521,12.446533 -13.008789,17.735474c-12.690918,8.524536 -15.337402,9.311035 -19.000732,5.647827zm-3.913086,-25.36792c-1.097168,-1.775635 2.631836,-6.523315 8.287598,-10.550415c12.85376,-9.152832 19.602051,-2.489136 7.447021,7.353516c-8.855957,7.171143 -12.784668,7.969482 -15.734619,3.196899zm108.201904,-52.432983c9.613281,-3.631226 26.125244,-8.568604 36.693359,-10.97168c33.297119,-7.571533 68.0625,-31.246826 45.884033,-31.246826c-3.609863,0 -8.405273,-2.219604 -10.656982,-4.932373c-5.813477,-7.004761 0.375977,-9.896973 18.248779,-8.527588c32.051025,2.456055 57.94165,-10.942383 98.455078,-50.950684c18.946533,-18.710571 17.269287,-23.90686 -4.183594,-12.962402c-8.843262,4.511719 -15.333252,5.854614 -18.583984,3.845581c-5.900146,-3.64624 -6.534424,-2.962891 28.155518,-30.337158c20.558105,-16.222778 28.44165,-25.167236 36.519531,-41.435425c5.666016,-11.410522 10.869141,-24.557861 11.561768,-29.216309c0.692871,-4.658447 2.742432,-11.240601 4.554932,-14.626953c4.29834,-8.031677 4.2771,-41.573792 -0.026367,-41.573792c-1.827148,0 -9.299072,7.472046 -16.604736,16.604675c-40.721924,50.905151 -96.899902,95.374878 -158.355225,125.351563c-18.265137,8.909302 -37.141846,18.89856 -41.948486,22.198608c-4.806641,3.299805 -16.604736,8.042725 -26.218018,10.539795c-31.742676,8.245605 -62.413818,24.561035 -46.171387,24.561035c6.151611,0 83.535156,-29.52002 105.405518,-40.209961c23.411377,-11.442627 62.084717,-33.313477 73.452148,-41.53894c5.009521,-3.625122 10.139404,-5.560425 11.398682,-4.300903c3.697754,3.697876 -37.795898,41.642334 -54.944092,50.244263c-8.6521,4.339966 -23.596191,12.298462 -33.209229,17.685425c-18.608643,10.427979 -63.145752,28.91626 -89.140869,37.004395c-14.1521,4.403198 -14.678223,4.924927 -5.243408,5.198608c5.767578,0.167236 19.065918,-1.978882 29.550781,-4.769165c10.485107,-2.790405 19.79248,-4.344849 20.683105,-3.454346c2.228516,2.228516 1.477783,2.738525 -22.268311,15.129517c-17.925781,9.353882 -19.547119,10.945679 -11.155029,10.952026c14.482666,0.011108 8.453369,5.696777 -15.179199,14.313477c-11.471924,4.182861 -20.85791,8.967529 -20.85791,10.632446c0,1.665039 3.310059,6.337402 7.355713,10.382935c8.302246,8.30249 17.13916,7.625 46.827881,-3.589844zm-57.679199,-26.694092c0,-0.8479 -2.452393,-1.541626 -5.449951,-1.541626c-2.997559,0 -4.461914,1.598755 -3.25415,3.552734c1.995361,3.228516 8.704102,1.678467 8.704102,-2.011108zm21.629639,-3.929688c-2.523193,-1.009644 -5.538574,-0.885498 -6.699951,0.276001c-1.161621,1.161621 0.902832,1.987793 4.588135,1.83606c4.072266,-0.167725 4.900635,-0.995972 2.111816,-2.112061zm-84.55249,-42.570801c34.02124,-6.532471 67.742676,-21.746704 90.334961,-40.756958c13.349854,-11.23291 24.386719,-41.740234 18.507568,-51.154907c-2.184326,-3.497314 -3.971191,-8.423584 -3.971191,-10.947388c0,-10.564819 -56.017822,-19.434326 -66.951904,-10.600708c-9.297363,7.511353 -92.699951,32.127197 -121.81665,35.953735c-47.289551,6.214844 -52.435791,7.490723 -52.435791,13.001587c0,4.296021 5.187988,4.732666 32.335449,2.721558c17.78418,-1.317383 41.773682,-4.558472 53.30957,-7.202148c25.597412,-5.866333 27.138916,-5.925781 25.491455,-0.982788c-2.030029,6.09021 -53.829346,19.829224 -84.918457,22.523438c-30.666504,2.657593 -50.552734,10.040039 -44.188232,16.404297c5.999512,5.999512 89.334229,3.826782 101.870605,-2.656006c5.575195,-2.883179 12.125244,-5.241943 14.55542,-5.241943c8.888672,0 -5.745605,9.631836 -26.793701,17.634644c-17.788818,6.763672 -28.007568,8.020752 -67.291748,8.278809c-25.474365,0.16748 -46.293457,1.09082 -46.264404,2.052246c0.217773,7.218872 8.616455,10.649658 29.322754,11.977539c13.057617,0.83728 24.76709,2.589722 26.021484,3.894287c2.923096,3.040161 102.134521,-0.915527 122.882813,-4.899292zm1.922607,-24.377563c1.826416,-1.60498 11.186279,-5.721191 20.799561,-9.147217c20.869141,-7.437744 40.692383,-19.799316 58.552979,-36.51355l13.109131,-12.267456l0,9.821777c0,7.267334 -4.544434,14.088501 -17.473633,26.226929c-14.151611,13.286011 -21.336182,17.202759 -37.789551,20.601196c-23.608887,4.876465 -42.013184,5.508789 -37.198486,1.27832zm28.664795,-27.76355c-3.364746,-0.710938 -6.117432,-2.718506 -6.117432,-4.460938c0,-4.701416 27.565918,-17.903198 34.34668,-16.449097c4.304443,0.922974 2.89209,2.828369 -5.333496,7.196777c-6.152588,3.267944 -12.445068,7.981201 -13.982666,10.473877c-1.537598,2.492554 -5.548584,3.950317 -8.913086,3.23938zm125.237061,-6.594727c19.793457,-9.061646 20.131348,-9.446655 12.657715,-14.409302c-12.537109,-8.324097 -8.943115,-11.237427 13.862793,-11.237427c18.235352,0 24.196045,-1.702881 38.831543,-11.094482l17.289307,-11.094482l-12.61377,-5.458618c-6.937256,-3.002319 -12.613525,-6.478149 -12.613525,-7.724121c0,-2.897217 13.237793,-6.467407 24.209229,-6.529175c4.663086,-0.026245 19.607178,-5.607056 33.209229,-12.401855c19.775391,-9.878662 26.661621,-15.532715 34.366699,-28.217834l9.635498,-15.863586l-18.018311,1.126038c-26.888916,1.68042 -25.231689,-5.583374 2.967773,-13.008789c32.940918,-8.673767 45.861084,-15.754089 65.283691,-35.775452c19.886963,-20.500671 33.625977,-43.042786 37.085205,-60.848145l2.502441,-12.878479l-15.721924,12.004578c-15.640869,11.942688 -30.575684,16.032715 -27.878662,7.634888c0.771729,-2.40332 8.910645,-8.476074 18.08667,-13.494995c11.28418,-6.171936 19.493896,-14.091675 25.365967,-24.469971c4.775146,-8.439636 11.395752,-18.490906 14.712402,-22.336121c3.317139,-3.845276 9.867188,-16.429871 14.55542,-27.965698c6.865967,-16.892395 8.38208,-26.256042 7.790283,-48.113586c-0.733154,-27.072693 -3.244141,-35.404114 -15.384033,-51.047729l-6.419434,-8.272705l-6.615479,15.26416c-23.545166,54.326538 -48.672852,97.815308 -76.483398,132.370605c-36.136719,44.901489 -97.62793,103.674988 -144.223633,137.850586c-12.497314,9.166016 -23.508789,17.828918 -24.469971,19.250854c-1.644775,2.432739 -34.359619,22.291626 -59.615479,36.188232c-8.02417,4.415039 -10.298096,7.364868 -7.689453,9.973755c3.805176,3.805176 35.094482,-11.60376 66.187012,-32.595154c8.037109,-5.426025 15.386719,-9.865479 16.332275,-9.865479c0.945801,0 15.606934,-10.324951 32.57959,-22.944458c35.966797,-26.741638 117.797363,-106.369751 130.487549,-126.975525c8.804443,-14.296387 17.478516,-18.834717 17.478516,-9.144775c0,5.55365 -26.794434,43.568298 -39.58374,56.159912c-4.184814,4.119812 -11.147949,9.350769 -15.473633,11.624268c-4.325928,2.27356 -7.865479,6.098389 -7.865479,8.499756c0,5.640442 -28.806641,33.347107 -66.428955,63.891968c-37.133301,30.148438 -55.271484,42.714844 -83.012939,57.512573c-12.016357,6.40979 -21.848145,13.712891 -21.848145,16.22876c0,5.995239 7.034668,5.641602 15.525146,-0.780151c3.731934,-2.822876 8.919922,-5.132324 11.528564,-5.132324c2.608887,0 18.876465,-9.438477 36.150879,-20.974365c32.165771,-21.480652 39.377441,-24.689148 36.060059,-16.044312c-3.397461,8.853149 -64.649658,50.85791 -85.755859,58.808472c-4.505371,1.697266 -5.347168,5.442261 -3.969971,17.660645c1.25415,11.126953 0.040527,18.112671 -4.297363,24.733154c-7.583984,11.574341 -4.194336,11.560913 21.241699,-0.084106zm-246.713135,-37.994019c14.419922,-2.941284 32.51001,-6.214722 40.200684,-7.274536c22.161133,-3.053711 64.124268,-19.042114 92.636475,-35.295166c14.419922,-8.219971 27.999268,-14.957031 30.17627,-14.971313c2.177246,-0.014282 10.04248,-6.039551 17.47876,-13.389343c7.436035,-7.349854 16.272705,-14.379272 19.637451,-15.621033c3.364502,-1.241516 6.117432,-4.666504 6.117432,-7.61084c0,-2.944275 1.573242,-5.35321 3.49585,-5.35321c1.922607,0 3.495605,-2.045044 3.495605,-4.544495c0,-2.49939 1.763184,-6.307495 3.917969,-8.462463c7.584473,-7.584045 20.519775,-44.838196 20.535889,-59.141846c0.02417,-21.445618 -7.859619,-28.846985 -31.445313,-29.520569c-25.261475,-0.721619 -39.94751,4.370605 -51.211182,17.756897c-27.71167,32.933411 -105.058838,80.53772 -184.170654,113.35022c-18.907715,7.842102 -33.852051,15.831604 -33.209229,17.754333c0.642822,1.922607 1.955566,3.192627 2.916992,2.822266c0.961182,-0.370361 15.905273,-5.606445 33.209229,-11.635742c17.303711,-6.029114 45.192871,-17.820801 61.975342,-26.203552c33.123535,-16.544922 43.428467,-15.479614 19.433105,2.009094c-18.726563,13.648743 -35.330078,22.300659 -70.86792,36.928467c-30.406738,12.515869 -39.3479,21.271118 -18.221924,17.842896c6.865479,-1.114258 30.757813,-8.609863 53.094482,-16.657227c40.384277,-14.549683 48.943848,-15.603394 40.089844,-4.935181c-6.849121,8.252686 -25.365479,16.716064 -64.528809,29.493896c-39.26001,12.80957 -41.330078,14.011963 -38.193604,22.186157c2.762939,7.199585 10.066406,7.278931 43.437256,0.47229zm146.820068,-74.375183c0,-1.970886 1.445557,-4.107727 3.211426,-4.748657c8.67749,-3.148254 45.728516,-39.787537 45.728516,-45.21991c0,-3.421265 1.572998,-7.192749 3.495605,-8.380981c1.922607,-1.188293 3.49585,-10.04834 3.49585,-19.689087c0,-14.805481 0.950439,-17.348328 6.117432,-16.368164c4.388916,0.832458 6.405029,5.103088 7.133789,15.113037c1.387207,19.050842 -14.010254,48.338013 -34.225586,65.098755c-15.9104,13.191467 -34.957031,20.925842 -34.957031,14.195007zm6.991455,-35.26532c0,-3.122009 23.135498,-24.832092 26.462402,-24.832092c3.530029,0 -6.528076,15.9104 -13.762695,21.770447c-8.297852,6.721619 -12.699707,7.782776 -12.699707,3.061646zm-195.76001,24.868042c28.549805,-7.518433 83.59375,-37.550049 129.341309,-70.56781c10.574463,-7.63208 22.483398,-15.351135 26.464355,-17.153625c9.980713,-4.518921 40.582764,-40.47937 52.273193,-61.425598c12.067139,-21.621399 19.047363,-47.333252 19.101074,-70.359863c0.033691,-14.350159 -1.599121,-19.284546 -8.538818,-25.803894c-7.234131,-6.796143 -11.210449,-7.782288 -25.343994,-6.2854c-27.724854,2.936279 -42.584473,11.471436 -67.572998,38.813049c-33.514648,36.669983 -101.001465,86.497864 -160.681396,118.636658c-22.50647,12.119995 -27.012817,19.23822 -10.852783,17.142578c12.228027,-1.585754 50.299561,-21.638977 83.612549,-44.040771c15.984863,-10.749268 29.749268,-19.544006 30.587402,-19.544006c0.838379,0 1.524414,2.822876 1.524414,6.273071c0,9.789734 -30.098145,30.859192 -87.153076,61.008972c-14.925293,7.887024 -22.48877,16.615112 -14.397949,16.615112c5.559082,0 32.590088,-14.108459 62.937256,-32.848938c14.331543,-8.850098 27.578613,-16.091064 29.438477,-16.091064c1.859619,0 6.101807,-2.462097 9.426758,-5.471375c3.334717,-3.017639 6.946289,-4.014038 8.053955,-2.221924c4.367188,7.065796 -72.55957,60.802917 -98.320068,68.68158c-4.61377,1.411194 -7.865479,5.198669 -7.865479,9.16156c0,3.715637 0.657715,6.755859 1.460938,6.755859c1.716309,0 65.355225,-27.891479 92.46582,-40.525757c10.323242,-4.810669 19.525635,-7.990051 20.450684,-7.065247c4.370117,4.370483 -7.334473,11.810608 -56.258789,35.759888c-48.417236,23.701477 -53.064453,26.793091 -55.123779,36.672119c-2.467529,11.836243 -4.200195,11.566772 24.970947,3.884827zm145.493652,-115.436584c-1.033691,-1.672974 4.480713,-9.196411 12.254395,-16.718689c18.3125,-17.719971 28.265625,-37.33429 30.001953,-59.121277c2.548828,-31.995056 14.846924,-29.308105 14.947754,3.26593c0.05957,19.095642 -9.382813,42.140198 -21.825439,53.267517c-12.640137,11.303894 -33.342529,22.601257 -35.378662,19.306519zm13.529541,-51.887329c6.972412,-16.756042 14.541016,-24.847595 18.994141,-20.307129c3.672363,3.743958 -12.484619,29.764343 -20.032227,32.261963c-3.479492,1.151428 -3.23291,-1.691833 1.038086,-11.954834zm158.234863,137.732483l36.818604,-28.831238l-12.912598,-3.622742c-13.692871,-3.841919 -13.474365,-8.628967 0.394043,-8.628967c11.764648,0 46.554443,-18.873901 59.60083,-32.334412l11.020996,-11.370544l-16.023193,-0.620178c-25.187256,-0.974731 -24.105713,-5.868042 3.298828,-14.92749c27.631104,-9.134521 40.106934,-18.815735 64.075439,-49.722961c18.207275,-23.478027 19.635498,-29.736694 5.068359,-22.203552c-10.328369,5.341003 -28.139404,7.30127 -28.139404,3.096985c0,-3.488708 11.705322,-11.511658 16.975342,-11.635315c5.205322,-0.12207 30.118164,-18.751099 39.881104,-29.821472c7.203857,-8.169067 34.032227,-62.237427 34.032227,-68.587097c0,-2.381409 1.874756,-9.514404 4.166016,-15.851196c5.463135,-15.1073 2.668945,-17.124756 -11.637207,-8.402832c-17.007568,10.368958 -23.331787,9.07428 -11.822021,-2.420349c15.106934,-15.087769 29.780273,-49.377686 29.780273,-69.594421c0,-35.47406 -20.27002,-91.203033 -33.422363,-91.888947c-2.039551,-0.106384 -5.759033,8.065216 -8.264893,18.159088c-13.729004,55.30127 -39.429199,113.395081 -82.349854,186.14679c-24.843994,42.111023 -47.109619,70.309937 -92.933105,117.697266c-18.995361,19.643677 -33.820557,36.432312 -32.944336,37.308167c5.348145,5.348206 83.771484,-69.449829 109.391357,-104.334473c6.347412,-8.642578 20.905518,-28.29834 32.351563,-43.679565c11.446045,-15.381104 26.401367,-39.541321 33.23291,-53.689209c6.832031,-14.147949 13.187256,-24.95813 14.122559,-24.022644c4.153809,4.153564 -19.512207,53.193237 -43.407227,89.946899c-30.906982,47.538696 -52.649658,73.686646 -99.445068,119.592346c-19.759277,19.383301 -34.109131,36.215088 -33.44873,39.233398c0.76416,3.492554 13.498779,-6.557434 37.529541,-29.618103c20.005371,-19.197266 37.087402,-34.190063 37.960205,-33.3172c4.245361,4.245239 -24.383057,36.291382 -63.028564,70.552856c-9.059814,8.031982 -12.942139,14.902039 -14.815674,26.217834c-1.395996,8.433655 -5.503174,21.52832 -9.126953,29.099304c-3.623535,7.571167 -6.588623,15.524109 -6.588623,17.673401c0,2.149292 -3.932617,9.238342 -8.739258,15.753296c-20.448975,27.716858 -4.766357,23.1922 39.348877,-11.352722zm-10.858154,-43.729492c-1.801758,-2.915283 29.319336,-35.806335 33.879395,-35.806335c5.893311,0 1.216064,10.116028 -9.060547,19.596924c-17.124756,15.798645 -22.787109,19.496887 -24.818848,16.209412zm-41.270508,-75.725403c10.416504,-5.386658 66.963379,-63.229004 66.963379,-68.49762c0,-1.774719 -2.359619,-2.321289 -5.243652,-1.214661c-2.884033,1.10675 -5.243408,3.259644 -5.243408,4.784302c0,1.524658 -5.505859,2.772156 -12.235107,2.772156c-6.729248,0 -12.234863,-0.406494 -12.234863,-0.903381c0,-1.903564 37.291504,-25.256409 49.065918,-30.726196c6.798584,-3.158264 16.249756,-10.154175 21.003174,-15.546448c12.639648,-14.338989 35.781006,-50.191467 33.724121,-52.248291c-0.972412,-0.97229 -6.555176,0.707825 -12.40625,3.733582c-5.851074,3.025757 -15.04248,5.500427 -20.425293,5.49939c-8.612061,-0.00177 -7.139648,-1.63031 12.268555,-13.568237c12.130371,-7.461426 25.603027,-16.898987 29.939209,-20.97229c4.335693,-4.073364 9.653564,-7.406128 11.816895,-7.406128c4.098145,0 30.959473,-48.288269 34.54541,-62.101624l2.05542,-7.918091l-17.504395,8.792053c-29.07251,14.602234 -35.696533,9.811462 -9.408691,-6.80481c21.41748,-13.537903 37.178223,-40.664673 48.496094,-83.468719c13.85791,-52.411957 12.652588,-56.015991 -11.880127,-35.519531c-20.252197,16.920349 -29.742676,16.304871 -13.475342,-0.873932c26.617188,-28.108826 41.440918,-58.380859 41.440918,-84.628601c0,-21.536682 -17.696045,-63.408783 -37.730713,-89.277252c-10.97168,-14.166687 -20.84668,-25.862518 -21.94458,-25.990692c-1.097656,-0.128174 -2.265625,8.812103 -2.594971,19.867279c-1.314453,44.108124 -16.025146,137.833405 -24.004395,152.9375c-2.031494,3.845306 -4.74585,13.283722 -6.031494,20.974274c-3.376221,20.196411 3.17627,8.792206 10.505371,-18.283051c3.262939,-12.054718 7.079346,-21.917664 8.480225,-21.917664c10.190674,0 -20.706543,97.678802 -49.205811,155.559296c-24.306152,49.365845 -74.538574,126.316406 -104.080078,159.43988c-11.376465,12.756714 -14.546143,18.740967 -12.814697,24.196533c1.949707,6.142273 3.139404,6.553345 7.798584,2.694458c6.733887,-5.577393 48.926025,-56.223511 59.853516,-71.846252c4.370361,-6.248535 9.330811,-11.361023 11.022461,-11.361023c4.552002,0 -2.86377,18.917358 -10.7229,27.352783c-3.746582,4.021606 -6.812012,8.346802 -6.812012,9.611633c0,4.865051 -24.809082,35.554138 -43.592773,53.924133c-19.308594,18.883667 -32.127197,37.308228 -28.488037,40.94696c1.958984,1.959106 26.016113,-16.044434 33.518555,-25.084167c2.453613,-2.956604 5.896973,-5.375671 7.6521,-5.375671c6.502197,0 -5.912598,16.4422 -30.834229,40.835938c-14.106689,13.807922 -25.648438,26.785706 -25.648438,28.839661c0,5.409973 23.175537,4.583313 34.412354,-1.227478zm-3.071777,-124.142334c3.856689,-7.56012 8.633545,-14.747681 10.615234,-15.972412c3.519531,-2.175049 63.369141,-90.952698 65.983398,-97.875488c0.726074,-1.922668 7.008301,-12.934143 13.960693,-24.470032c16.678467,-27.675598 49.836914,-103.068512 47.203613,-107.329071c-1.138916,-1.842804 -7.202148,8.967773 -13.473633,24.02356c-31.375732,75.320587 -82.154541,158.326447 -127.194336,207.919769c-9.469727,10.426575 -14.486084,18.824036 -13.21875,22.126648c3.395264,8.84845 8.73584,6.058594 16.123779,-8.422974z"/>
 </g>
</svg>
